<svg width="48" height="48" viewBox="0 0 48 48" fill="none" xmlns="http://www.w3.org/2000/svg">
<rect width="48" height="48" fill="#252525"/>
<path d="M43.2051 18.1006L42.8477 18.0713L39.8848 17.8232L39.6357 17.8359L41.5107 19.7109L41.6807 19.8818L41.5703 20.0957L40.6592 21.8623L40.6357 21.9082L39.2139 23.3301L38.9824 23.0557L37.0664 20.7891L36.877 20.6172V23.5107L36.6475 23.584L34.7549 24.1895L34.7061 24.2051H32.6943L32.7236 23.8477L32.9561 21.0674L29.8701 24.2871L29.6611 24.5049L29.4248 24.3154L26.5254 21.9873L26.2285 21.749L26.5078 21.4893L30.0664 18.1758L25.4102 18.2744L25.1084 18.2803L25.0752 17.9805L24.6719 14.2842L24.6309 13.9043L25.0117 13.918L29.8672 14.0908L26.5088 10.8701L26.291 10.6611L26.4805 10.4248L28.8086 7.52539L29.0469 7.22852L29.3066 7.50781L32.6162 11.0635L32.5205 6.41016L32.5146 6.1084L32.8145 6.0752L36.5107 5.67188L36.8906 5.63086L36.877 6.01172L36.6934 11.1377L36.6992 11.2959L38.7109 9.28613L38.8818 9.11621L39.0957 9.22656L40.8613 10.1367L40.9072 10.1602L40.9434 10.1963L42.0762 11.3281L42.3301 11.582L42.0557 11.8135L39.7891 13.7285L39.6191 13.918H42.5107L42.584 14.1475L43.1895 16.04L43.2051 16.0889V18.1006Z" fill="#17AB59" stroke="#252525" stroke-width="0.659862"/>
<path d="M19.3301 10.9941L19.6572 28.6699H27.6631V41.3301H6.64648L6.6709 40.9775L7.33691 31.3242V11.6982L7.6377 11.6709L18.9707 10.6709L19.3232 10.6406L19.3301 10.9941Z" fill="#FFC420" stroke="#252525" stroke-width="0.659862"/>
</svg>
