<svg width="318" height="55" viewBox="0 0 318 55" fill="none" xmlns="http://www.w3.org/2000/svg">
<path d="M40.0471 16.8281L39.5647 16.8457L21.884 17.4629C24.2568 17.6747 26.8508 17.9826 29.3372 18.3574C31.7793 18.7256 34.1664 19.1632 36.176 19.6504C38.0827 20.1127 39.969 20.6913 41.1702 21.4463C45.6068 24.235 48.432 27.4015 49.6711 31.7627C50.3931 34.304 49.8413 36.6802 49.0872 38.6689C48.7091 39.6658 48.2511 40.6385 47.8215 41.5322C47.3774 42.4561 46.97 43.283 46.6145 44.1172C44.6864 48.6411 40.1724 51.1304 37.1438 52.6533C36.4607 52.9968 35.6284 53.1641 34.9426 53.2676C34.1875 53.3815 33.3038 53.4585 32.3557 53.5098C30.4558 53.6126 28.133 53.6217 25.7278 53.5762C20.9097 53.485 15.597 53.1734 12.3176 52.9131H12.3167L10.6624 52.7803L10.2493 52.7471L10.2053 52.334L8.78149 38.7695L8.72388 38.2178H28.386C29.2738 38.2177 30.6668 37.7693 31.8489 36.8828C33.0373 35.9915 33.5207 35.0475 33.5208 34.3262L33.5139 33.8301C33.4989 33.3839 33.4615 33.0799 33.4075 32.8525C33.3403 32.5698 33.2442 32.3944 33.0979 32.1963C33.0959 32.1941 33.0721 32.167 33.0032 32.1201C32.9348 32.0737 32.8429 32.0212 32.7297 31.9658C32.5034 31.8551 32.2236 31.7466 31.9436 31.6494C31.6658 31.553 31.3977 31.4716 31.1985 31.4141C31.0992 31.3854 31.0176 31.3629 30.9612 31.3477C30.933 31.34 30.9113 31.3339 30.8967 31.3301C30.8895 31.3282 30.8837 31.3271 30.8801 31.3262C30.8785 31.3257 30.877 31.3254 30.8762 31.3252V31.3242C30.8727 31.3234 30.8683 31.3233 30.8635 31.3223C30.8442 31.318 30.8148 31.3119 30.7766 31.3037C30.7004 31.2873 30.5876 31.2634 30.4426 31.2334C30.1523 31.1734 29.7325 31.0891 29.218 30.9932C28.1885 30.8013 26.781 30.5623 25.2668 30.374C22.1372 29.9848 18.7649 29.706 14.1848 29.1641C9.25425 28.5806 6.1211 25.7575 4.12134 23.5107C2.13909 21.2833 1.37431 18.7468 0.884033 17.2676C0.101352 14.906 0.572794 12.5138 1.76978 10.3467C2.94799 8.214 4.88727 6.17194 7.33813 4.25488C8.77288 3.13276 11.0442 2.48761 13.2522 2.0498C15.5981 1.5847 18.3938 1.26307 21.2727 1.04297C27.0402 0.602043 33.3727 0.550885 37.6028 0.637695L38.1516 0.649414L39.5569 0.675781L40.0471 0.685547V16.8281Z" fill="#FFC420" stroke="#252525"/>
<mask id="path-2-inside-1_210_35511" fill="white">
<path fill-rule="evenodd" clip-rule="evenodd" d="M74.6096 1.51187C80.4433 1.51195 84.8333 2.95185 88.1116 5.27164C91.3847 7.5881 93.4748 10.7274 94.8059 13.9992C97.4494 20.4975 97.1595 27.6919 97.1594 30.4298C97.1594 33.1908 97.1683 35.8734 96.2776 38.4992C95.3716 41.1701 93.5715 43.6977 90.1331 46.3039C86.8204 48.8146 84.6536 50.2878 82.4446 51.1808C80.2194 52.0803 78.0118 52.3672 74.6936 52.6466C71.1683 52.9434 67.5447 52.0535 64.6047 50.7492C63.1297 50.0947 61.8028 49.3258 60.7268 48.5265C59.665 47.7377 58.7893 46.8759 58.2795 46.0177C56.9632 43.8006 53.3252 38.0457 51.6643 35.4347L51.5081 35.1886V20.9377C51.5081 20.0603 51.8522 18.9422 52.3049 17.8127C52.7725 16.6461 53.4122 15.3332 54.1116 14.0187C55.5114 11.3878 57.1863 8.6797 58.304 6.98551L58.4563 6.75601L58.7043 6.6359C60.5709 5.73382 63.5876 4.3999 66.592 3.32047C68.0941 2.78082 69.6091 2.29853 70.9846 1.96695C72.3095 1.64762 73.581 1.45146 74.6096 1.51187ZM74.0745 15.965C72.7452 15.8647 71.399 16.1647 70.3176 16.5949C69.773 16.8116 69.274 17.0695 68.8606 17.3449C68.4639 17.6092 68.0806 17.9332 67.8352 18.3039C67.3843 18.9848 66.1278 20.768 65.5481 21.5851L65.3694 21.8361V26.4972C65.3695 26.9293 65.5473 27.3944 65.7063 27.7502C65.8835 28.1465 66.1199 28.5806 66.3694 29.0011C66.8697 29.8444 67.465 30.7068 67.8625 31.2472L68.0149 31.4552L68.2502 31.5558C68.9128 31.843 69.9795 32.2662 71.0452 32.6095C71.5778 32.7811 72.1238 32.9374 72.6262 33.0461C73.0925 33.1468 73.5829 33.2194 74.01 33.2003C76.1163 33.1994 77.751 32.7326 79.0022 31.9386C80.2568 31.1424 81.0595 30.0594 81.5667 28.9416C82.5579 26.7563 82.4456 24.3518 82.4456 23.5373C82.4456 22.6987 82.4551 21.734 82.094 20.7795C81.7174 19.7841 80.9866 18.9004 79.7209 18.0402C78.5685 17.257 77.7603 16.7598 76.9172 16.4543C76.064 16.145 75.2283 16.0521 74.0745 15.965Z"/>
</mask>
<path fill-rule="evenodd" clip-rule="evenodd" d="M74.6096 1.51187C80.4433 1.51195 84.8333 2.95185 88.1116 5.27164C91.3847 7.5881 93.4748 10.7274 94.8059 13.9992C97.4494 20.4975 97.1595 27.6919 97.1594 30.4298C97.1594 33.1908 97.1683 35.8734 96.2776 38.4992C95.3716 41.1701 93.5715 43.6977 90.1331 46.3039C86.8204 48.8146 84.6536 50.2878 82.4446 51.1808C80.2194 52.0803 78.0118 52.3672 74.6936 52.6466C71.1683 52.9434 67.5447 52.0535 64.6047 50.7492C63.1297 50.0947 61.8028 49.3258 60.7268 48.5265C59.665 47.7377 58.7893 46.8759 58.2795 46.0177C56.9632 43.8006 53.3252 38.0457 51.6643 35.4347L51.5081 35.1886V20.9377C51.5081 20.0603 51.8522 18.9422 52.3049 17.8127C52.7725 16.6461 53.4122 15.3332 54.1116 14.0187C55.5114 11.3878 57.1863 8.6797 58.304 6.98551L58.4563 6.75601L58.7043 6.6359C60.5709 5.73382 63.5876 4.3999 66.592 3.32047C68.0941 2.78082 69.6091 2.29853 70.9846 1.96695C72.3095 1.64762 73.581 1.45146 74.6096 1.51187ZM74.0745 15.965C72.7452 15.8647 71.399 16.1647 70.3176 16.5949C69.773 16.8116 69.274 17.0695 68.8606 17.3449C68.4639 17.6092 68.0806 17.9332 67.8352 18.3039C67.3843 18.9848 66.1278 20.768 65.5481 21.5851L65.3694 21.8361V26.4972C65.3695 26.9293 65.5473 27.3944 65.7063 27.7502C65.8835 28.1465 66.1199 28.5806 66.3694 29.0011C66.8697 29.8444 67.465 30.7068 67.8625 31.2472L68.0149 31.4552L68.2502 31.5558C68.9128 31.843 69.9795 32.2662 71.0452 32.6095C71.5778 32.7811 72.1238 32.9374 72.6262 33.0461C73.0925 33.1468 73.5829 33.2194 74.01 33.2003C76.1163 33.1994 77.751 32.7326 79.0022 31.9386C80.2568 31.1424 81.0595 30.0594 81.5667 28.9416C82.5579 26.7563 82.4456 24.3518 82.4456 23.5373C82.4456 22.6987 82.4551 21.734 82.094 20.7795C81.7174 19.7841 80.9866 18.9004 79.7209 18.0402C78.5685 17.257 77.7603 16.7598 76.9172 16.4543C76.064 16.145 75.2283 16.0521 74.0745 15.965Z" fill="#FFC420"/>
<path d="M74.6096 1.51187L74.551 2.51015L74.5803 2.51187L74.6096 2.51187L74.6096 1.51187ZM88.1116 5.27164L88.6893 4.45538L88.6892 4.45534L88.1116 5.27164ZM94.8059 13.9992L95.7322 13.6224L95.7322 13.6223L94.8059 13.9992ZM97.1594 30.4298L96.1594 30.4298V30.4298H97.1594ZM96.2776 38.4992L97.2246 38.8204L97.2246 38.8204L96.2776 38.4992ZM90.1331 46.3039L90.7371 47.1008L90.7371 47.1008L90.1331 46.3039ZM82.4446 51.1808L82.8194 52.1079L82.8194 52.1079L82.4446 51.1808ZM74.6936 52.6466L74.7775 53.6431L74.7775 53.6431L74.6936 52.6466ZM64.6047 50.7492L64.1992 51.6632L64.1992 51.6633L64.6047 50.7492ZM60.7268 48.5265L60.1305 49.3293L60.1305 49.3293L60.7268 48.5265ZM58.2795 46.0177L57.4197 46.5283L57.4198 46.5284L58.2795 46.0177ZM51.6643 35.4347L50.8201 35.9707L50.8206 35.9715L51.6643 35.4347ZM51.5081 35.1886H50.5081V35.4793L50.6638 35.7246L51.5081 35.1886ZM51.5081 20.9377L50.5081 20.9376V20.9377H51.5081ZM52.3049 17.8127L51.3767 17.4406L51.3767 17.4407L52.3049 17.8127ZM54.1116 14.0187L53.2287 13.549L53.2287 13.549L54.1116 14.0187ZM58.304 6.98551L57.4708 6.43244L57.4692 6.43485L58.304 6.98551ZM58.4563 6.75601L58.0205 5.85599L57.7744 5.97516L57.6232 6.20295L58.4563 6.75601ZM58.7043 6.6359L58.2692 5.73553L58.2685 5.73587L58.7043 6.6359ZM66.592 3.32047L66.2539 2.37936L66.2539 2.37936L66.592 3.32047ZM70.9846 1.96695L70.7503 0.994792L70.7503 0.994797L70.9846 1.96695ZM74.0745 15.965L74.1498 14.9678L74.1497 14.9678L74.0745 15.965ZM70.3176 16.5949L69.948 15.6657L69.948 15.6657L70.3176 16.5949ZM68.8606 17.3449L68.3062 16.5126L68.3061 16.5127L68.8606 17.3449ZM67.8352 18.3039L68.669 18.856L68.669 18.8559L67.8352 18.3039ZM65.5481 21.5851L66.3627 22.1652L66.3637 22.1637L65.5481 21.5851ZM65.3694 21.8361L64.5548 21.2561L64.3694 21.5164V21.8361H65.3694ZM65.3694 26.4972H64.3694V26.4975L65.3694 26.4972ZM65.7063 27.7502L64.7933 28.1581L64.7934 28.1582L65.7063 27.7502ZM66.3694 29.0011L65.5094 29.5114L65.5094 29.5114L66.3694 29.0011ZM67.8625 31.2472L68.6693 30.6564L68.6681 30.6546L67.8625 31.2472ZM68.0149 31.4552L67.2081 32.0461L67.37 32.2671L67.6219 32.3748L68.0149 31.4552ZM68.2502 31.5558L68.6479 30.6383L68.6432 30.6363L68.2502 31.5558ZM71.0452 32.6095L70.7385 33.5614H70.7385L71.0452 32.6095ZM72.6262 33.0461L72.4149 34.0235L72.415 34.0235L72.6262 33.0461ZM74.01 33.2003L74.0096 32.2003L73.9875 32.2004L73.9654 32.2013L74.01 33.2003ZM79.0022 31.9386L79.538 32.783L79.538 32.783L79.0022 31.9386ZM81.5667 28.9416L82.4773 29.3547L82.4773 29.3546L81.5667 28.9416ZM82.4456 23.5373L81.4456 23.5373V23.5373L82.4456 23.5373ZM82.094 20.7795L83.0293 20.4256L83.0293 20.4256L82.094 20.7795ZM79.7209 18.0402L80.2831 17.2131L80.283 17.2131L79.7209 18.0402ZM76.9172 16.4543L77.258 15.5141L77.258 15.5141L76.9172 16.4543ZM74.6096 1.51187L74.6096 2.51187C80.2728 2.51195 84.4521 3.90714 87.5339 6.08794L88.1116 5.27164L88.6892 4.45534C85.2145 1.99656 80.6137 0.511956 74.6096 0.511874L74.6096 1.51187ZM88.1116 5.27164L87.5339 6.0879C90.6156 8.26886 92.6019 11.2355 93.8796 14.376L94.8059 13.9992L95.7322 13.6223C94.3476 10.2193 92.1539 6.90734 88.6893 4.45538L88.1116 5.27164ZM94.8059 13.9992L93.8796 14.376C96.435 20.6576 96.1595 27.6383 96.1594 30.4298L97.1594 30.4298L98.1594 30.4299C98.1595 27.7456 98.4639 20.3374 95.7322 13.6224L94.8059 13.9992ZM97.1594 30.4298H96.1594C96.1594 33.2207 96.1593 35.7347 95.3306 38.178L96.2776 38.4992L97.2246 38.8204C98.1772 36.0121 98.1594 33.1608 98.1594 30.4298H97.1594ZM96.2776 38.4992L95.3306 38.1779C94.5019 40.6208 92.8441 42.9942 89.529 45.5069L90.1331 46.3039L90.7371 47.1008C94.2988 44.4012 96.2412 41.7193 97.2246 38.8204L96.2776 38.4992ZM90.1331 46.3039L89.529 45.5069C86.2141 48.0194 84.1419 49.416 82.0698 50.2537L82.4446 51.1808L82.8194 52.1079C85.1653 51.1595 87.4268 49.6098 90.7371 47.1008L90.1331 46.3039ZM82.4446 51.1808L82.0698 50.2537C79.9976 51.0914 77.9243 51.371 74.6097 51.6502L74.6936 52.6466L74.7775 53.6431C78.0992 53.3634 80.4413 53.0692 82.8194 52.1079L82.4446 51.1808ZM74.6936 52.6466L74.6097 51.6502C71.2951 51.9292 67.8418 51.0913 65.0103 49.8351L64.6047 50.7492L64.1992 51.6633C67.2475 53.0156 71.0415 53.9576 74.7775 53.6431L74.6936 52.6466ZM64.6047 50.7492L65.0103 49.8351C63.5945 49.2069 62.333 48.4739 61.3231 47.7237L60.7268 48.5265L60.1305 49.3293C61.2727 50.1777 62.665 50.9825 64.1992 51.6632L64.6047 50.7492ZM60.7268 48.5265L61.3231 47.7238C60.3138 46.974 59.5541 46.2053 59.1393 45.507L58.2795 46.0177L57.4198 46.5284C58.0245 47.5465 59.0161 48.5014 60.1305 49.3293L60.7268 48.5265ZM58.2795 46.0177L59.1394 45.5072C57.8134 43.2738 54.1659 37.5041 52.5081 34.898L51.6643 35.4347L50.8206 35.9715C52.4846 38.5874 56.113 44.3274 57.4197 46.5283L58.2795 46.0177ZM51.6643 35.4347L52.5085 34.8987L52.3523 34.6526L51.5081 35.1886L50.6638 35.7246L50.8201 35.9707L51.6643 35.4347ZM51.5081 35.1886H52.5081V20.9377H51.5081H50.5081V35.1886H51.5081ZM51.5081 20.9377L52.5081 20.9377C52.5081 20.2673 52.7847 19.3037 53.2332 18.1847L52.3049 17.8127L51.3767 17.4407C50.9198 18.5808 50.5081 19.8533 50.5081 20.9376L51.5081 20.9377ZM52.3049 17.8127L53.2332 18.1847C53.6822 17.0643 54.3038 15.7865 54.9944 14.4884L54.1116 14.0187L53.2287 13.549C52.5206 14.88 51.8628 16.2278 51.3767 17.4406L52.3049 17.8127ZM54.1116 14.0187L54.9944 14.4884C56.3759 11.8919 58.0336 9.21134 59.1387 7.53616L58.304 6.98551L57.4692 6.43485C56.339 8.14806 54.6468 10.8837 53.2287 13.549L54.1116 14.0187ZM58.304 6.98551L59.1371 7.53857L59.2894 7.30908L58.4563 6.75601L57.6232 6.20295L57.4708 6.43244L58.304 6.98551ZM58.4563 6.75601L58.8921 7.65604L59.1402 7.53592L58.7043 6.6359L58.2685 5.73587L58.0205 5.85599L58.4563 6.75601ZM58.7043 6.6359L59.1395 7.53626C60.9813 6.64611 63.9652 5.3268 66.9302 4.26157L66.592 3.32047L66.2539 2.37936C63.2099 3.47301 60.1604 4.82153 58.2692 5.73553L58.7043 6.6359ZM66.592 3.32047L66.9301 4.26157C68.4128 3.7289 69.8909 3.25923 71.219 2.93911L70.9846 1.96695L70.7503 0.994797C69.3272 1.33783 67.7754 1.83273 66.2539 2.37936L66.592 3.32047ZM70.9846 1.96695L71.2189 2.93911C72.513 2.62721 73.6706 2.45844 74.551 2.51015L74.6096 1.51187L74.6683 0.513594C73.4915 0.444479 72.106 0.66802 70.7503 0.994792L70.9846 1.96695ZM74.0745 15.965L74.1497 14.9678C72.6323 14.8533 71.132 15.1947 69.948 15.6657L70.3176 16.5949L70.6873 17.524C71.666 17.1347 72.8581 16.876 73.9992 16.9622L74.0745 15.965ZM70.3176 16.5949L69.948 15.6657C69.3479 15.9044 68.7855 16.1933 68.3062 16.5126L68.8606 17.3449L69.415 18.1772C69.7625 17.9457 70.198 17.7187 70.6873 17.524L70.3176 16.5949ZM68.8606 17.3449L68.3061 16.5127C67.8595 16.8103 67.3521 17.2221 67.0014 17.7518L67.8352 18.3039L68.669 18.8559C68.8091 18.6444 69.0683 18.4081 69.4151 18.1771L68.8606 17.3449ZM67.8352 18.3039L67.0014 17.7518C66.5614 18.4163 65.3156 20.1846 64.7325 21.0065L65.5481 21.5851L66.3637 22.1637C66.94 21.3513 68.2072 19.5533 68.669 18.856L67.8352 18.3039ZM65.5481 21.5851L64.7335 21.0051L64.5548 21.2561L65.3694 21.8361L66.184 22.4161L66.3627 22.1652L65.5481 21.5851ZM65.3694 21.8361H64.3694V26.4972H65.3694H66.3694V21.8361H65.3694ZM65.3694 26.4972L64.3694 26.4975C64.3696 27.1593 64.6304 27.7937 64.7933 28.1581L65.7063 27.7502L66.6193 27.3422C66.4642 26.9951 66.3694 26.6993 66.3694 26.497L65.3694 26.4972ZM65.7063 27.7502L64.7934 28.1582C64.9922 28.6032 65.2496 29.0736 65.5094 29.5114L66.3694 29.0011L67.2294 28.4909C66.9901 28.0875 66.7747 27.6899 66.6192 27.3421L65.7063 27.7502ZM66.3694 29.0011L65.5094 29.5114C66.0308 30.3902 66.6456 31.2806 67.057 31.8398L67.8625 31.2472L68.6681 30.6546C68.2843 30.1331 67.7087 29.2987 67.2294 28.4909L66.3694 29.0011ZM67.8625 31.2472L67.0558 31.8381L67.2081 32.0461L68.0149 31.4552L68.8217 30.8644L68.6693 30.6564L67.8625 31.2472ZM68.0149 31.4552L67.6219 32.3748L67.8572 32.4754L68.2502 31.5558L68.6432 30.6363L68.4079 30.5357L68.0149 31.4552ZM68.2502 31.5558L67.8526 32.4734C68.5385 32.7706 69.636 33.2062 70.7385 33.5614L71.0452 32.6095L71.3518 31.6577C70.3231 31.3263 69.2871 30.9153 68.6479 30.6383L68.2502 31.5558ZM71.0452 32.6095L70.7385 33.5614C71.2893 33.7388 71.8691 33.9055 72.4149 34.0235L72.6262 33.0461L72.8375 32.0686C72.3785 31.9694 71.8664 31.8235 71.3518 31.6577L71.0452 32.6095ZM72.6262 33.0461L72.415 34.0235C72.9108 34.1306 73.4997 34.2241 74.0546 34.1994L74.01 33.2003L73.9654 32.2013C73.6661 32.2147 73.2742 32.163 72.8375 32.0686L72.6262 33.0461ZM74.01 33.2003L74.0105 34.2004C76.2659 34.1993 78.0957 33.6982 79.538 32.783L79.0022 31.9386L78.4664 31.0943C77.4064 31.767 75.9667 32.1995 74.0096 32.2003L74.01 33.2003ZM79.0022 31.9386L79.538 32.783C80.9857 31.8643 81.9052 30.6158 82.4773 29.3547L81.5667 28.9416L80.656 28.5284C80.2138 29.503 79.5279 30.4206 78.4664 31.0943L79.0022 31.9386ZM81.5667 28.9416L82.4773 29.3546C83.5749 26.935 83.4456 24.2959 83.4456 23.5372L82.4456 23.5373L81.4456 23.5373C81.4456 24.4076 81.5409 26.5776 80.656 28.5285L81.5667 28.9416ZM82.4456 23.5373L83.4456 23.5373C83.4456 22.728 83.4655 21.5786 83.0293 20.4256L82.094 20.7795L81.1587 21.1333C81.4447 21.8894 81.4456 22.6693 81.4456 23.5373L82.4456 23.5373ZM82.094 20.7795L83.0293 20.4256C82.5611 19.1882 81.6688 18.155 80.2831 17.2131L79.7209 18.0402L79.1588 18.8672C80.3043 19.6458 80.8737 20.38 81.1587 21.1333L82.094 20.7795ZM79.7209 18.0402L80.283 17.2131C79.1297 16.4293 78.2304 15.8666 77.258 15.5141L76.9172 16.4543L76.5765 17.3944C77.2902 17.6531 78.0073 18.0847 79.1588 18.8673L79.7209 18.0402ZM76.9172 16.4543L77.258 15.5141C76.264 15.1539 75.3065 15.0552 74.1498 14.9678L74.0745 15.965L73.9992 16.9622C75.1501 17.0491 75.864 17.1362 76.5765 17.3944L76.9172 16.4543Z" fill="#252525" mask="url(#path-2-inside-1_210_35511)"/>
<path d="M114.204 2.60352L130.204 3.73242L130.679 3.7666L130.669 4.24219L130.103 31.3359L130.102 31.3438V31.3506L129.404 44.7607L130.101 53.0605L130.146 53.6025H122.242L122.191 53.5918L114.067 51.8984L113.669 51.8154V31.3066L114.182 17.4756L113.669 3.12012L113.649 2.56445L114.204 2.60352Z" fill="#17AB59" stroke="#252525"/>
<path d="M175.669 17.9092L175.189 17.9287L163.024 18.418L163.517 35.2715L163.518 35.2861L163.517 35.3008L163.011 52.1172L162.996 52.6025H150.325L150.38 52.0527L151.39 41.8887L151.378 19.4912L135.199 20.4795L134.669 20.5117V7.34863L135.043 7.25098L150.739 3.16992L150.774 3.16016L150.811 3.15625L174.102 0.605469L174.596 0.551758L174.653 1.04492L175.666 9.71777L175.669 9.74707V17.9092Z" fill="#17AB59" stroke="#252525"/>
<mask id="path-6-inside-2_210_35511" fill="white">
<path d="M300.958 1.36719C305.582 1.36719 310.867 3.45032 315.491 8.13672C319.191 11.8858 315.786 23.6137 313.103 24.6484C310.419 25.6831 298.481 26.8818 298.481 26.8818C305.307 27.0554 314.17 28.1317 314.17 28.9648C314.17 30.0063 317.473 37.8171 316.813 43.5449C316.152 49.2725 309.547 52.3971 304.262 52.918C299.427 53.3943 286.848 52.9174 282.224 51.876V26.3613L280.903 1.36719H300.958ZM296.425 37.582C295.283 37.5824 295.391 39.9865 295.391 40.9902C295.391 41.994 297.869 41.6719 299.011 41.6719C300.153 41.6718 300.562 40.6307 300.562 39.627C300.562 38.6231 297.567 37.582 296.425 37.582ZM297.422 12.5244C296.28 12.525 296.389 14.9289 296.389 15.9326C296.389 16.936 298.866 16.6143 300.008 16.6143C301.15 16.6143 301.559 15.5731 301.559 14.5693C301.559 13.5655 298.564 12.5244 297.422 12.5244Z"/>
</mask>
<path d="M300.958 1.36719C305.582 1.36719 310.867 3.45032 315.491 8.13672C319.191 11.8858 315.786 23.6137 313.103 24.6484C310.419 25.6831 298.481 26.8818 298.481 26.8818C305.307 27.0554 314.17 28.1317 314.17 28.9648C314.17 30.0063 317.473 37.8171 316.813 43.5449C316.152 49.2725 309.547 52.3971 304.262 52.918C299.427 53.3943 286.848 52.9174 282.224 51.876V26.3613L280.903 1.36719H300.958ZM296.425 37.582C295.283 37.5824 295.391 39.9865 295.391 40.9902C295.391 41.994 297.869 41.6719 299.011 41.6719C300.153 41.6718 300.562 40.6307 300.562 39.627C300.562 38.6231 297.567 37.582 296.425 37.582ZM297.422 12.5244C296.28 12.525 296.389 14.9289 296.389 15.9326C296.389 16.936 298.866 16.6143 300.008 16.6143C301.15 16.6143 301.559 15.5731 301.559 14.5693C301.559 13.5655 298.564 12.5244 297.422 12.5244Z" fill="#FFC420"/>
<path d="M315.491 8.13672L316.203 7.43435V7.43435L315.491 8.13672ZM313.103 24.6484L313.462 25.5815L313.463 25.5815L313.103 24.6484ZM298.481 26.8818L298.381 25.8868L298.455 27.8815L298.481 26.8818ZM314.17 28.9648H315.17V28.9643L314.17 28.9648ZM316.813 43.5449L317.806 43.6595L317.806 43.6595L316.813 43.5449ZM304.262 52.918L304.36 53.9132L304.36 53.9131L304.262 52.918ZM282.224 51.876H281.224V52.6758L282.004 52.8515L282.224 51.876ZM282.224 26.3613H283.224V26.3349L283.222 26.3085L282.224 26.3613ZM280.903 1.36719V0.367188H279.848L279.904 1.41998L280.903 1.36719ZM296.425 37.582V36.582H296.425L296.425 37.582ZM295.391 40.9902H294.391V40.9903L295.391 40.9902ZM299.011 41.6719V42.6719H299.011L299.011 41.6719ZM300.562 39.627H301.562V39.6269L300.562 39.627ZM297.422 12.5244V11.5244H297.422L297.422 12.5244ZM296.389 15.9326H295.389V15.9332L296.389 15.9326ZM300.008 16.6143V15.6143H300.008L300.008 16.6143ZM301.559 14.5693L302.559 14.5694V14.5693H301.559ZM300.958 1.36719V2.36719C305.281 2.36719 310.318 4.31765 314.78 8.83909L315.491 8.13672L316.203 7.43435C311.416 2.58298 305.884 0.367188 300.958 0.367188V1.36719ZM315.491 8.13672L314.78 8.83909C315.474 9.54254 315.912 10.7119 316.061 12.2492C316.208 13.7662 316.059 15.5122 315.711 17.2095C315.363 18.9052 314.826 20.503 314.23 21.7192C313.932 22.3281 313.63 22.8173 313.348 23.1698C313.051 23.5391 312.839 23.6784 312.743 23.7154L313.103 24.6484L313.463 25.5815C314.037 25.3598 314.518 24.9063 314.908 24.4215C315.31 23.9199 315.686 23.2938 316.026 22.5992C316.708 21.2082 317.294 19.4457 317.67 17.6114C318.046 15.7788 318.223 13.8252 318.052 12.0564C317.882 10.308 317.359 8.60546 316.203 7.43435L315.491 8.13672ZM313.103 24.6484L312.743 23.7154C312.178 23.9331 311.025 24.1885 309.516 24.4484C308.039 24.7029 306.311 24.9477 304.657 25.1614C303.005 25.3749 301.435 25.5563 300.278 25.6844C299.7 25.7485 299.225 25.7991 298.895 25.8338C298.73 25.8511 298.601 25.8644 298.513 25.8733C298.47 25.8778 298.436 25.8812 298.414 25.8835C298.403 25.8846 298.395 25.8855 298.389 25.886C298.386 25.8863 298.384 25.8865 298.383 25.8866C298.382 25.8867 298.382 25.8868 298.381 25.8868C298.381 25.8868 298.381 25.8868 298.381 25.8868C298.381 25.8868 298.381 25.8868 298.481 26.8818C298.581 27.8768 298.581 27.8768 298.581 27.8768C298.581 27.8768 298.581 27.8768 298.581 27.8768C298.582 27.8767 298.582 27.8767 298.583 27.8766C298.585 27.8764 298.587 27.8762 298.59 27.8759C298.596 27.8753 298.604 27.8744 298.616 27.8733C298.639 27.8709 298.673 27.8675 298.717 27.8629C298.806 27.8538 298.937 27.8403 299.103 27.8228C299.437 27.7879 299.915 27.7368 300.498 27.6723C301.663 27.5433 303.246 27.3604 304.913 27.1449C306.58 26.9296 308.339 26.6807 309.856 26.4194C311.34 26.1636 312.685 25.8811 313.462 25.5815L313.103 24.6484ZM298.481 26.8818L298.455 27.8815C301.834 27.9674 305.722 28.2772 308.757 28.6678C310.279 28.8636 311.561 29.0765 312.449 29.2857C312.901 29.3919 313.207 29.4874 313.382 29.5625C313.475 29.6023 313.478 29.6142 313.441 29.5846C313.434 29.5783 313.17 29.3748 313.17 28.9653L314.17 28.9648L315.17 28.9643C315.17 28.4508 314.837 28.1412 314.696 28.0275C314.527 27.8905 314.332 27.7937 314.17 27.724C313.834 27.5801 313.394 27.4534 312.908 27.3389C311.921 27.1065 310.56 26.8833 309.013 26.6842C305.91 26.285 301.954 25.9698 298.506 25.8822L298.481 26.8818ZM314.17 28.9648H313.17C313.17 29.2545 313.266 29.6251 313.346 29.92C313.44 30.2627 313.572 30.6913 313.721 31.1722C314.021 32.1445 314.407 33.3777 314.773 34.7541C315.511 37.534 316.127 40.7644 315.819 43.4303L316.813 43.5449L317.806 43.6595C318.159 40.5976 317.454 37.0587 316.706 34.2408C316.328 32.8184 315.929 31.5456 315.631 30.5815C315.481 30.0942 315.359 29.697 315.275 29.3908C315.178 29.0369 315.17 28.9355 315.17 28.9648H314.17ZM316.813 43.5449L315.819 43.4303C315.534 45.9051 313.962 47.8871 311.725 49.3465C309.485 50.8081 306.671 51.6757 304.164 51.9228L304.262 52.918L304.36 53.9131C307.137 53.6394 310.269 52.6843 312.818 51.0215C315.37 49.3564 317.431 46.9123 317.806 43.6595L316.813 43.5449ZM304.262 52.918L304.164 51.9228C301.82 52.1537 297.525 52.1565 293.208 51.9671C288.881 51.7772 284.66 51.3996 282.444 50.9004L282.224 51.876L282.004 52.8515C284.412 53.3938 288.793 53.7753 293.12 53.9652C297.457 54.1555 301.869 54.1586 304.36 53.9132L304.262 52.918ZM282.224 51.876H283.224V26.3613H282.224H281.224V51.876H282.224ZM282.224 26.3613L283.222 26.3085L281.901 1.3144L280.903 1.36719L279.904 1.41998L281.225 26.4141L282.224 26.3613ZM280.903 1.36719V2.36719H300.958V1.36719V0.367188H280.903V1.36719ZM296.425 37.582L296.425 36.582C295.707 36.5823 295.215 36.993 294.933 37.4441C294.677 37.8541 294.558 38.3422 294.492 38.7525C294.36 39.5796 294.391 40.5414 294.391 40.9902H295.391H296.391C296.391 40.4353 296.367 39.6933 296.467 39.0673C296.518 38.7511 296.585 38.5753 296.63 38.503C296.649 38.472 296.572 38.582 296.425 38.582L296.425 37.582ZM295.391 40.9902L294.391 40.9903C294.391 41.7824 294.934 42.2319 295.39 42.4343C295.81 42.6205 296.304 42.6815 296.714 42.7057C297.145 42.7312 297.602 42.7205 298 42.7058C298.423 42.6902 298.75 42.6719 299.011 42.6719V41.6719V40.6719C298.701 40.6719 298.29 40.6938 297.927 40.7072C297.539 40.7215 297.162 40.7287 296.831 40.7092C296.479 40.6884 296.282 40.6418 296.201 40.6061C296.157 40.5866 296.391 40.7 296.391 40.9901L295.391 40.9902ZM299.011 41.6719L299.011 42.6719C299.947 42.6718 300.643 42.2168 301.059 41.5618C301.441 40.9605 301.562 40.2403 301.562 39.627H300.562H299.562C299.562 40.0174 299.479 40.3197 299.37 40.4898C299.322 40.5656 299.277 40.6034 299.24 40.6245C299.206 40.6443 299.139 40.6719 299.011 40.6719L299.011 41.6719ZM300.562 39.627L301.562 39.6269C301.562 38.8898 301.043 38.3768 300.701 38.103C300.305 37.787 299.806 37.5213 299.319 37.3103C298.368 36.8986 297.19 36.582 296.425 36.582V37.582V38.582C296.803 38.582 297.693 38.786 298.525 39.1458C298.928 39.3206 299.249 39.5034 299.451 39.6649C299.706 39.8687 299.562 39.8622 299.562 39.627L300.562 39.627ZM297.422 12.5244L297.422 11.5244C296.704 11.5248 296.212 11.9356 295.93 12.3869C295.675 12.7969 295.555 13.285 295.49 13.6953C295.358 14.5222 295.389 15.4841 295.389 15.9326H296.389H297.389C297.389 15.3774 297.365 14.6355 297.465 14.0095C297.515 13.6932 297.582 13.5175 297.627 13.4452C297.647 13.4142 297.569 13.5243 297.423 13.5244L297.422 12.5244ZM296.389 15.9326L295.389 15.9332C295.389 16.7249 295.932 17.1742 296.389 17.3765C296.808 17.5627 297.301 17.6238 297.711 17.648C298.143 17.6735 298.6 17.6629 298.998 17.6482C299.42 17.6326 299.747 17.6143 300.008 17.6143L300.008 16.6143L300.008 15.6143C299.698 15.6143 299.287 15.6361 298.924 15.6495C298.536 15.6638 298.16 15.671 297.829 15.6515C297.477 15.6307 297.28 15.584 297.2 15.5483C297.156 15.5288 297.389 15.642 297.389 15.9321L296.389 15.9326ZM300.008 16.6143V17.6143C300.944 17.6143 301.64 17.1592 302.056 16.5042C302.438 15.9028 302.559 15.1827 302.559 14.5694L301.559 14.5693L300.559 14.5693C300.559 14.9598 300.476 15.2621 300.368 15.4322C300.319 15.508 300.274 15.5458 300.237 15.5669C300.203 15.5867 300.136 15.6143 300.008 15.6143V16.6143ZM301.559 14.5693H302.559C302.559 13.8322 302.04 13.3191 301.698 13.0453C301.303 12.7294 300.804 12.4637 300.316 12.2527C299.365 11.841 298.187 11.5244 297.422 11.5244V12.5244V13.5244C297.8 13.5244 298.69 13.7284 299.522 14.0882C299.925 14.2629 300.247 14.4457 300.449 14.6073C300.703 14.811 300.559 14.8046 300.559 14.5693H301.559Z" fill="#151515" mask="url(#path-6-inside-2_210_35511)"/>
<mask id="path-8-inside-3_210_35511" fill="white">
<path fill-rule="evenodd" clip-rule="evenodd" d="M274.746 53.1025H253.947L254.725 40.4531L251.636 53.1025H231.413L248.746 2.89648L275.903 1.10254L274.746 53.1025ZM258.226 19.8418C257.034 19.8231 255.745 23.4799 255.724 24.8828C255.703 26.2855 258.559 26.1981 259.75 26.2168C260.942 26.2355 260.604 23.1869 260.624 21.7842C260.645 20.3819 259.417 19.8606 258.226 19.8418Z"/>
</mask>
<path fill-rule="evenodd" clip-rule="evenodd" d="M274.746 53.1025H253.947L254.725 40.4531L251.636 53.1025H231.413L248.746 2.89648L275.903 1.10254L274.746 53.1025ZM258.226 19.8418C257.034 19.8231 255.745 23.4799 255.724 24.8828C255.703 26.2855 258.559 26.1981 259.75 26.2168C260.942 26.2355 260.604 23.1869 260.624 21.7842C260.645 20.3819 259.417 19.8606 258.226 19.8418Z" fill="#FFC420"/>
<path d="M274.746 53.1025V54.1025H275.724L275.746 53.1248L274.746 53.1025ZM253.947 53.1025L252.948 53.0411L252.883 54.1025H253.947V53.1025ZM254.725 40.4531L255.723 40.5145L253.753 40.2159L254.725 40.4531ZM251.636 53.1025V54.1025H252.421L252.607 53.3398L251.636 53.1025ZM231.413 53.1025L230.468 52.7762L230.01 54.1025H231.413V53.1025ZM248.746 2.89648L248.68 1.89866L248.018 1.94243L247.801 2.57015L248.746 2.89648ZM275.903 1.10254L276.902 1.12477L276.927 0.0327115L275.837 0.104714L275.903 1.10254ZM258.226 19.8418L258.242 18.8419L258.242 18.8419L258.226 19.8418ZM255.724 24.8828L254.724 24.868L254.724 24.8681L255.724 24.8828ZM259.75 26.2168L259.766 25.2169H259.766L259.75 26.2168ZM260.624 21.7842L261.624 21.7989L261.624 21.7987L260.624 21.7842ZM274.746 53.1025V52.1025H253.947V53.1025V54.1025H274.746V53.1025ZM253.947 53.1025L254.945 53.164L255.723 40.5145L254.725 40.4531L253.727 40.3917L252.948 53.0411L253.947 53.1025ZM254.725 40.4531L253.753 40.2159L250.665 52.8653L251.636 53.1025L252.607 53.3398L255.696 40.6903L254.725 40.4531ZM251.636 53.1025V52.1025H231.413V53.1025V54.1025H251.636V53.1025ZM231.413 53.1025L232.359 53.4289L249.692 3.22282L248.746 2.89648L247.801 2.57015L230.468 52.7762L231.413 53.1025ZM248.746 2.89648L248.812 3.89431L275.969 2.10036L275.903 1.10254L275.837 0.104714L248.68 1.89866L248.746 2.89648ZM275.903 1.10254L274.903 1.08031L273.747 53.0803L274.746 53.1025L275.746 53.1248L276.902 1.12477L275.903 1.10254ZM258.226 19.8418L258.242 18.8419C257.442 18.8294 256.872 19.4017 256.553 19.8008C256.188 20.2585 255.874 20.8455 255.619 21.4296C255.119 22.5759 254.737 23.9797 254.724 24.868L255.724 24.8828L256.724 24.8976C256.731 24.383 257.004 23.257 257.453 22.2288C257.672 21.7257 257.904 21.3143 258.117 21.0478C258.376 20.7226 258.414 20.8449 258.21 20.8417L258.226 19.8418ZM255.724 24.8828L254.724 24.8681C254.713 25.6344 255.126 26.1809 255.621 26.5119C256.074 26.8141 256.625 26.9659 257.104 27.0528C258.068 27.2274 259.193 27.2082 259.735 27.2167L259.75 26.2168L259.766 25.2169C259.115 25.2067 258.217 25.2218 257.461 25.0848C257.08 25.0158 256.847 24.9253 256.732 24.8489C256.684 24.8167 256.687 24.8067 256.702 24.831C256.709 24.8432 256.716 24.8586 256.72 24.8747C256.724 24.8906 256.724 24.8995 256.724 24.8975L255.724 24.8828ZM259.75 26.2168L259.735 27.2167C260.593 27.2302 261.078 26.6346 261.3 26.137C261.51 25.6669 261.588 25.1 261.624 24.605C261.661 24.0885 261.657 23.5377 261.646 23.0501C261.636 22.539 261.619 22.1258 261.624 21.7989L260.624 21.7842L259.624 21.7695C259.619 22.1439 259.637 22.6378 259.647 23.0923C259.657 23.5702 259.659 24.0434 259.629 24.4621C259.597 24.9022 259.536 25.1816 259.473 25.3218C259.423 25.4343 259.503 25.2128 259.766 25.2169L259.75 26.2168ZM260.624 21.7842L261.624 21.7987C261.639 20.7486 261.162 19.9568 260.441 19.4671C259.772 19.0125 258.954 18.8532 258.242 18.8419L258.226 19.8418L258.21 20.8417C258.689 20.8493 259.08 20.96 259.317 21.1213C259.503 21.2475 259.629 21.4175 259.624 21.7696L260.624 21.7842Z" fill="#151515" mask="url(#path-8-inside-3_210_35511)"/>
<path d="M213.469 1.09375L214.038 31.8027H227.913V53.6025H191.633L191.67 53.0684L192.824 36.3467V2.37793L193.28 2.33789L212.925 0.604492L213.459 0.557617L213.469 1.09375Z" fill="#FFC420" stroke="#252525"/>
</svg>
